Coordinates
version=1
nRows=32
nColumns=12
inDegrees=yes

Units are S.I. units (second, meters, Newtons, ...)
Angles are in degrees

endheader
time	SC_y	SC_z	SC_x	AC_y	AC_z	AC_x	GH_y	GH_z	GH_yy	EL_x	PS_y
       0.0              -24.46          36.56          35.98           39.1         -10.05          13.61          92.68           41.7         -130.5          25.37          49.69
   0.00285              -24.47          36.55          35.98           39.1         -10.05          13.61          92.68           41.7         -130.5          25.37          49.69
    0.0057              -24.47          36.55          35.98          39.11         -10.05          13.61          92.68          41.71         -130.5          25.38          49.69
  0.008549              -24.47          36.55          35.97          39.11         -10.05           13.6          92.67          41.71         -130.5          25.39          49.69
    0.0114              -24.48          36.54          35.97          39.12         -10.04           13.6          92.67          41.71         -130.4           25.4          49.69
   0.01425              -24.48          36.54          35.97          39.12         -10.04          13.59          92.66          41.72         -130.4           25.4          49.69
    0.0171              -24.48          36.53          35.97          39.13         -10.04          13.59          92.66          41.72         -130.4          25.41          49.69
   0.01995              -24.49          36.53          35.97          39.13         -10.03          13.58          92.65          41.73         -130.4          25.42          49.69
    0.0228              -24.49          36.52          35.97          39.14         -10.03          13.58          92.65          41.73         -130.3          25.43          49.69
   0.02565               -24.5          36.51          35.97          39.14         -10.03          13.57          92.64          41.73         -130.3          25.44          49.69
    0.0285               -24.5          36.51          35.96          39.15         -10.02          13.57          92.63          41.74         -130.3          25.45           49.7
   0.03135              -24.51           36.5          35.96          39.16         -10.02          13.56          92.63          41.74         -130.2          25.46           49.7
    0.0342              -24.52          36.49          35.96          39.17         -10.01          13.56          92.62          41.75         -130.2          25.47           49.7
   0.03705              -24.52          36.48          35.96          39.18         -10.01          13.55          92.61          41.76         -130.1          25.49           49.7
    0.0399              -24.53          36.47          35.95          39.19          -10.0          13.54           92.6          41.76         -130.1           25.5           49.7
   0.04275              -24.54          36.46          35.95           39.2         -9.999          13.53          92.59          41.77         -130.0          25.52           49.7
    0.0456              -24.55          36.45          35.95          39.21         -9.993          13.52          92.58          41.78         -130.0          25.54           49.7
   0.04845              -24.55          36.44          35.95          39.22         -9.986          13.51          92.57          41.79         -129.9          25.55           49.7
    0.0513              -24.56          36.43          35.94          39.24         -9.979           13.5          92.55           41.8         -129.9          25.58          49.71
   0.05415              -24.58          36.41          35.94          39.25          -9.97          13.49          92.54          41.81         -129.8           25.6          49.71
     0.057              -24.59           36.4          35.93          39.27         -9.962          13.48          92.52          41.82         -129.7          25.62          49.71
   0.05985               -24.6          36.38          35.93          39.29         -9.952          13.46          92.51          41.83         -129.6          25.65          49.71
    0.0627              -24.62          36.36          35.92          39.31         -9.941          13.45          92.49          41.85         -129.5          25.68          49.72
   0.06555              -24.63          36.34          35.92          39.33         -9.929          13.43          92.47          41.86         -129.4          25.71          49.72
    0.0684              -24.65          36.31          35.91          39.35         -9.916          13.41          92.44          41.88         -129.3          25.75          49.72
   0.07125              -24.67          36.29           35.9          39.38         -9.901          13.38          92.42           41.9         -129.1          25.79          49.73
    0.0741              -24.69          36.26           35.9          39.41         -9.884          13.36          92.39          41.92         -129.0          25.84          49.73
   0.07695              -24.72          36.23          35.89          39.45         -9.866          13.33          92.35          41.94         -128.8          25.89          49.73
   0.07979              -24.75          36.19          35.88          39.49         -9.845           13.3          92.32          41.97         -128.6          25.95          49.74
   0.08264              -24.78          36.14          35.86          39.53         -9.821          13.26          92.27           42.0         -128.4          26.02          49.75
   0.08549              -24.82           36.1          35.85          39.59         -9.793          13.22          92.22          42.04         -128.2          26.09          49.75
   0.08834              -24.86          36.04          35.84          39.64         -9.762          13.18          92.17          42.08         -127.9          26.18          49.76
